<?xml version="1.0" encoding="utf-8"?>
<!-- Generator: Adobe Illustrator 19.1.0, SVG Export Plug-In . SVG Version: 6.00 Build 0)  -->
<svg version="1.1" id="Layer_1" xmlns="http://www.w3.org/2000/svg" xmlns:xlink="http://www.w3.org/1999/xlink" x="0px" y="0px"
	 viewBox="0 0 751.2 105" style="enable-background:new 0 0 751.2 105;" xml:space="preserve">
<style type="text/css">
	.st0{fill:#42C0C0;}
	.st1{fill:url(#SVGID_1_);}
	.st2{opacity:0.6;fill:url(#SVGID_2_);}
	.st3{opacity:0.6;}
	.st4{fill:url(#SVGID_3_);}
	.st5{opacity:0.4;fill:url(#SVGID_4_);}
	.st6{fill:url(#SVGID_5_);}
	.st7{fill:url(#SVGID_6_);}
	.st8{fill:url(#SVGID_7_);}
	.st9{fill:#FFFFFF;}
</style>
<g>
	<rect x="0" y="0" class="st0" width="751.2" height="105"/>
	<linearGradient id="SVGID_1_" gradientUnits="userSpaceOnUse" x1="-7.867713e-005" y1="59.0625" x2="751.2133" y2="59.0625">
		<stop  offset="0" style="stop-color:#373C98"/>
		<stop  offset="0.1511" style="stop-color:#3D4CA0"/>
		<stop  offset="0.3217" style="stop-color:#4259A8"/>
		<stop  offset="0.5071" style="stop-color:#4562AD"/>
		<stop  offset="0.7165" style="stop-color:#4867B0"/>
		<stop  offset="1" style="stop-color:#4969B1"/>
	</linearGradient>
	<polygon class="st1" points="0,99.1 751.2,13.1 751.2,105 0,105 	"/>
	<linearGradient id="SVGID_2_" gradientUnits="userSpaceOnUse" x1="199.36" y1="265.7053" x2="603.3392" y2="-167.8455">
		<stop  offset="0" style="stop-color:#1E658E"/>
		<stop  offset="8.298077e-002" style="stop-color:#226A90"/>
		<stop  offset="0.2174" style="stop-color:#2C7796"/>
		<stop  offset="0.3864" style="stop-color:#3B8E9F"/>
		<stop  offset="0.5817" style="stop-color:#52B2AC"/>
		<stop  offset="0.648" style="stop-color:#5AC3B2"/>
		<stop  offset="1" style="stop-color:#5AC3B2"/>
	</linearGradient>
	<polygon class="st2" points="0,48.1 751.2,86.9 751.2,105 0,105 	"/>
	<g class="st3">
		<linearGradient id="SVGID_3_" gradientUnits="userSpaceOnUse" x1="208.9826" y1="112.6436" x2="124.2753" y2="259.0868">
			<stop  offset="0" style="stop-color:#11B1D1"/>
			<stop  offset="9.443146e-002" style="stop-color:#32B4BE"/>
			<stop  offset="0.2133" style="stop-color:#44B6A9"/>
			<stop  offset="0.3394" style="stop-color:#4FB897"/>
			<stop  offset="0.4728" style="stop-color:#56BA8A"/>
			<stop  offset="0.617" style="stop-color:#5BBC80"/>
			<stop  offset="0.7797" style="stop-color:#5EBD7A"/>
			<stop  offset="1" style="stop-color:#5EBE78"/>
		</linearGradient>
		<polygon class="st4" points="0,51.7 165.6,66.8 457.7,105 0,105 		"/>
	</g>
	<linearGradient id="SVGID_4_" gradientUnits="userSpaceOnUse" x1="0" y1="62.2263" x2="751.2133" y2="62.2263">
		<stop  offset="0" style="stop-color:#11B1D1"/>
		<stop  offset="5.446321e-002" style="stop-color:#2BB5D5"/>
		<stop  offset="0.2445" style="stop-color:#52BFDF"/>
		<stop  offset="0.4511" style="stop-color:#65C7E8"/>
		<stop  offset="0.6842" style="stop-color:#6FCDEE"/>
		<stop  offset="1" style="stop-color:#72D0F0"/>
	</linearGradient>
	<polygon class="st5" points="0,105 0,73.1 751.2,19.5 751.2,105 	"/>
	<linearGradient id="SVGID_5_" gradientUnits="userSpaceOnUse" x1="110.0507" y1="145.9307" x2="383.9715" y2="-127.9901">
		<stop  offset="0" style="stop-color:#4BC2C6"/>
		<stop  offset="0.3216" style="stop-color:#3BA0B3"/>
		<stop  offset="1" style="stop-color:#15628F"/>
	</linearGradient>
	<polygon class="st6" points="512,0 0,35.9 0,0 	"/>
	<linearGradient id="SVGID_6_" gradientUnits="userSpaceOnUse" x1="508.8053" y1="-139.955" x2="343.4103" y2="146.5175">
		<stop  offset="0" style="stop-color:#11B1D1"/>
		<stop  offset="0.2033" style="stop-color:#179CBD"/>
		<stop  offset="0.5693" style="stop-color:#1E7DA2"/>
		<stop  offset="0.8464" style="stop-color:#1E6C94"/>
		<stop  offset="1" style="stop-color:#1E658E"/>
	</linearGradient>
	<polygon class="st7" points="89.6,0 751.2,26.2 751.2,0 	"/>
	<linearGradient id="SVGID_7_" gradientUnits="userSpaceOnUse" x1="641.5092" y1="-38.0031" x2="696.7579" y2="57.6905">
		<stop  offset="0" style="stop-color:#4BC2C6"/>
		<stop  offset="0.2912" style="stop-color:#3B9CAF"/>
		<stop  offset="0.6167" style="stop-color:#2B7D9D"/>
		<stop  offset="0.8633" style="stop-color:#226C92"/>
		<stop  offset="1" style="stop-color:#1E658E"/>
	</linearGradient>
	<polygon class="st8" points="751.2,26.2 575.7,0 751.2,0 	"/>
</g>
<g>
	<path class="st9" d="M119.9,25.3h22.5c2.7,0,5,0.3,6.8,0.9c1.8,0.6,3.5,1.5,5.1,2.7c1.7,1.4,3,3,3.9,4.9c0.9,1.9,1.3,3.9,1.3,6
		c0,3.8-1.4,7.1-4.1,10c2.3,1.3,3.9,3,5,5.1c1,2.1,1.6,4.7,1.6,7.8c0,2.6-0.4,5-1.3,7.1c-0.9,2.1-2.1,3.9-3.8,5.4
		c-1.6,1.5-3.6,2.6-5.9,3.4c-2.3,0.8-4.9,1.2-7.8,1.2h-23.3V25.3z M140.3,73.2c4.2,0,7.6-1,10-2.9c2.4-1.9,3.6-4.6,3.6-8.1
		c0-5.9-3.2-9.5-9.5-10.8c2.3-0.5,4.2-1.7,5.5-3.4c1.4-1.7,2-3.7,2-6.1c0-2.4-0.6-4.4-1.9-6.1c-0.6-0.9-1.4-1.7-2.4-2.4
		c-1-0.6-2.1-1-3.2-1.3c-1.1-0.2-2.8-0.4-4.9-0.4H128v41.4H140.3z M130.2,33.8h9.3c0.7,0,1.3,0,1.9,0c0.6,0,1.1,0,1.6,0.1
		c2.2,0.3,4,1.3,5.3,3.1c0.4,0.7,0.8,1.5,1.1,2.4c0.3,0.9,0.4,1.9,0.4,2.8c0,1.7-0.4,3.3-1.3,4.7c-0.3,0.4-0.6,0.8-1,1.2
		c-0.4,0.4-0.8,0.7-1.2,1c-0.9,0.6-1.8,1-2.7,1.2c-1,0.2-2.3,0.3-4,0.3h-9.3V33.8z M130.2,52.6h7.1c1.3,0,2.4,0,3.4,0
		c1,0,1.8,0.1,2.5,0.2c0.7,0.1,1.4,0.2,2,0.4c0.6,0.2,1.2,0.4,1.8,0.7c3.2,1.4,4.7,4.2,4.7,8.3c0,2.9-1,5.2-2.9,6.8
		c-2,1.6-4.8,2.4-8.5,2.4h-10.1V52.6z M137.8,45.7c1.7,0,3-0.3,3.8-0.9c0.8-0.6,1.1-1.6,1.1-3c0-1.3-0.4-2.2-1.1-2.8
		c-0.8-0.6-2-0.9-3.8-0.9h-1.1v7.6H137.8z M137.8,66.9c2.4,0,4.2-0.4,5.3-1.1c1.1-0.8,1.7-2,1.7-3.7c0-3.1-2.3-4.7-7-4.7h-1.1v9.5
		H137.8z"/>
	<path class="st9" d="M165.8,25.3h19.3c6.8,0,12.2,1.6,16.2,4.9c2.4,1.9,4.4,4.3,5.8,7.3c1.4,3,2.2,6,2.2,9c0,1.9-0.3,3.8-0.8,5.6
		c-0.5,1.9-1.3,3.5-2.3,4.9c-0.3,0.4-0.5,0.8-0.8,1.1c-0.3,0.3-0.6,0.6-0.9,1c-0.3,0.4-0.7,0.7-1.1,1.1c-0.4,0.4-1,0.9-1.7,1.5
		l10.2,18H192l-8.8-13.4v13.4h-17.4V25.3z M176.1,73.2V60.8h5.1c2.7,0,5.2-0.2,7.6-0.7l7.8,13.1h2.6l-8.2-13.7
		c6.4-2.2,9.6-6.5,9.6-12.7c0-3.9-1.1-7.1-3.4-9.6c-0.8-0.9-1.7-1.7-2.7-2.4c-1.1-0.7-2.2-1.3-3.3-1.7c-1.1-0.4-2.4-0.7-3.8-0.9
		c-1.4-0.2-3.2-0.3-5.2-0.3H174v41.4H176.1z M176.1,33.8h6.2c0.8,0,1.5,0,2.1,0c0.7,0,1.3,0,1.8,0.1c1.4,0.1,2.7,0.4,3.9,0.8
		c1.3,0.4,2.4,1,3.5,1.8c1.6,1.1,2.9,2.6,3.7,4.4c0.8,1.8,1.3,3.7,1.3,5.9c0,3.3-1.2,6.1-3.6,8.4c-1.5,1.3-3.3,2.3-5.5,2.9
		c-2.2,0.6-5.1,0.9-8.8,0.9h-4.7V33.8z M183.8,52h0.2c1.2,0,2,0,2.5-0.1c0.5-0.1,1.1-0.3,1.7-0.7c0.9-0.5,1.6-1.3,2.2-2.2
		c0.5-0.9,0.8-1.9,0.8-3c0-1.1-0.3-2.1-0.8-3c-0.5-0.9-1.2-1.7-2.2-2.2c-0.7-0.3-1.2-0.5-1.7-0.7c-0.5-0.1-1.3-0.2-2.5-0.2h-0.2
		h-0.6v12H183.8z"/>
	<path class="st9" d="M213.4,25.3h32.1v14.3h-14.7v6h14.4v13.5h-14.4v6.3H246v14.3h-32.6V25.3z M240,73.2v-1.9h-16.3v-18h15.5v-2
		h-15.5V33.8H240v-2h-18.4v41.4H240z"/>
	<path class="st9" d="M267.2,25.3h13.1l20.6,54.4h-17.1l-1.8-4.9h-16.5l-1.8,4.9h-17.1L267.2,25.3z M258.7,73.2l1.6-4.1h26.9
		l1.5,4.1h2.3l-15.9-41.9h-2.8l-15.9,41.9H258.7z M273.7,33.8l12.7,33.5H261L273.7,33.8z M277.4,62.8l-3.7-9.5l-3.7,9.5H277.4z"/>
	<path class="st9" d="M302.8,25.3h17.4v12.9l15.7-15.6l12.1,12.2L333,49.6L349.6,72l-14.2,10.4l-15.2-20.5v17.8h-17.4V25.3z
		 M312.9,73.2v-14l8.3-8.2l17,22.8l1.8-1.3l-17.1-23.1l15.3-15.3l-1.6-1.6l-23.7,23.7V31.8h-2.2v41.4H312.9z"/>
	<path class="st9" d="M359.1,39.5h-10V25.3h38.1v14.2h-10.1v40.2h-18V39.5z M369.2,73.2V33.8h11.7v-2h-25.5v2H367v39.4H369.2z"/>
	<path class="st9" d="M390.2,25.3h17.4v18.5h9.8V25.3h17.4v54.4h-17.4V59.6h-9.8v20.2h-17.4V25.3z M400.5,73.2V52.6h24v20.6h2.1
		V31.8h-2.1v18.8h-24V31.8h-2.1v41.4H400.5z"/>
	<path class="st9" d="M440.8,25.3h19.3c6.8,0,12.2,1.6,16.2,4.9c2.4,1.9,4.4,4.3,5.8,7.3c1.4,3,2.2,6,2.2,9c0,1.9-0.3,3.8-0.8,5.6
		c-0.5,1.9-1.3,3.5-2.3,4.9c-0.3,0.4-0.5,0.8-0.8,1.1c-0.3,0.3-0.6,0.6-0.9,1c-0.3,0.4-0.7,0.7-1.1,1.1c-0.4,0.4-1,0.9-1.7,1.5
		l10.2,18H467l-8.8-13.4v13.4h-17.4V25.3z M451.1,73.2V60.8h5.1c2.7,0,5.2-0.2,7.6-0.7l7.8,13.1h2.6l-8.2-13.7
		c6.4-2.2,9.6-6.5,9.6-12.7c0-3.9-1.1-7.1-3.4-9.6c-0.8-0.9-1.7-1.7-2.7-2.4c-1.1-0.7-2.2-1.3-3.3-1.7c-1.1-0.4-2.4-0.7-3.8-0.9
		c-1.4-0.2-3.2-0.3-5.2-0.3H449v41.4H451.1z M451.1,33.8h6.2c0.8,0,1.5,0,2.1,0c0.7,0,1.3,0,1.8,0.1c1.4,0.1,2.7,0.4,3.9,0.8
		c1.3,0.4,2.4,1,3.5,1.8c1.6,1.1,2.9,2.6,3.7,4.4c0.8,1.8,1.3,3.7,1.3,5.9c0,3.3-1.2,6.1-3.6,8.4c-1.5,1.3-3.3,2.3-5.5,2.9
		c-2.2,0.6-5.1,0.9-8.8,0.9h-4.7V33.8z M458.8,52h0.2c1.2,0,2,0,2.5-0.1c0.5-0.1,1.1-0.3,1.7-0.7c0.9-0.5,1.6-1.3,2.2-2.2
		c0.5-0.9,0.8-1.9,0.8-3c0-1.1-0.3-2.1-0.8-3c-0.5-0.9-1.2-1.7-2.2-2.2c-0.7-0.3-1.2-0.5-1.7-0.7C461,40,460.2,40,459,40h-0.2h-0.6
		v12H458.8z"/>
	<path class="st9" d="M506.3,25.3v31.4c0,2.9,0.3,5.1,1,6.4c0.7,1.3,1.8,2,3.3,2c1.5,0,2.6-0.7,3.3-2c0.7-1.3,1-3.4,1-6.4V25.3h18.3
		v35.4c0,3-0.6,5.7-1.7,8.2c-1.1,2.5-2.7,4.7-4.7,6.4c-2,1.8-4.4,3.2-7.1,4.2c-2.7,1-5.8,1.5-9.1,1.5c-3.3,0-6.4-0.5-9.1-1.5
		s-5.2-2.4-7.1-4.2c-2-1.8-3.5-3.9-4.7-6.4c-1.1-2.5-1.7-5.2-1.7-8.2V25.3H506.3z M522.9,31.8v27.5c0,2-0.3,3.7-0.9,5.3
		c-0.6,1.6-1.4,3-2.5,4.1c-1.1,1.1-2.3,2-3.8,2.7c-1.5,0.6-3.2,0.9-5,0.9c-1.8,0-3.5-0.3-5-0.9c-1.5-0.6-2.8-1.5-3.8-2.7
		c-1.1-1.1-1.9-2.5-2.5-4.1c-0.6-1.6-0.9-3.4-0.9-5.3V31.8h-2.2v27.5c0,4.6,1.3,8.2,3.9,10.9c2.6,2.7,6.1,4,10.5,4
		c4.4,0,7.9-1.3,10.5-4c2.6-2.7,3.9-6.3,4-10.9V31.8H522.9z"/>
	<path class="st9" d="M555.3,25.3h18v40.3h15.2v14.1h-33.1V25.3z M583.8,73.2v-1.9h-18.3V31.8h-2.1v41.4H583.8z"/>
	<path class="st9" d="M591.4,25.3h22.5c2.7,0,5,0.3,6.8,0.9c1.8,0.6,3.5,1.5,5.1,2.7c1.7,1.4,3,3,3.9,4.9c0.9,1.9,1.3,3.9,1.3,6
		c0,3.8-1.4,7.1-4.1,10c2.3,1.3,3.9,3,5,5.1c1,2.1,1.6,4.7,1.6,7.8c0,2.6-0.4,5-1.3,7.1c-0.9,2.1-2.1,3.9-3.8,5.4
		c-1.6,1.5-3.6,2.6-5.9,3.4c-2.3,0.8-4.9,1.2-7.8,1.2h-23.3V25.3z M611.8,73.2c4.2,0,7.6-1,10-2.9c2.4-1.9,3.6-4.6,3.6-8.1
		c0-5.9-3.2-9.5-9.5-10.8c2.3-0.5,4.2-1.7,5.5-3.4c1.4-1.7,2-3.7,2-6.1c0-2.4-0.6-4.4-1.9-6.1c-0.6-0.9-1.4-1.7-2.4-2.4
		c-1-0.6-2.1-1-3.2-1.3c-1.1-0.2-2.8-0.4-4.9-0.4h-11.4v41.4H611.8z M601.7,33.8h9.3c0.7,0,1.3,0,1.9,0c0.6,0,1.1,0,1.6,0.1
		c2.2,0.3,4,1.3,5.3,3.1c0.4,0.7,0.8,1.5,1.1,2.4c0.3,0.9,0.4,1.9,0.4,2.8c0,1.7-0.4,3.3-1.3,4.7c-0.3,0.4-0.6,0.8-1,1.2
		c-0.4,0.4-0.8,0.7-1.2,1c-0.9,0.6-1.8,1-2.7,1.2c-1,0.2-2.3,0.3-4,0.3h-9.3V33.8z M601.7,52.6h7.1c1.3,0,2.4,0,3.4,0
		c1,0,1.8,0.1,2.5,0.2c0.7,0.1,1.4,0.2,2,0.4c0.6,0.2,1.2,0.4,1.8,0.7c3.2,1.4,4.7,4.2,4.7,8.3c0,2.9-1,5.2-2.9,6.8
		c-2,1.6-4.8,2.4-8.5,2.4h-10.1V52.6z M609.4,45.7c1.7,0,3-0.3,3.8-0.9c0.8-0.6,1.1-1.6,1.1-3c0-1.3-0.4-2.2-1.1-2.8
		c-0.8-0.6-2-0.9-3.8-0.9h-1.1v7.6H609.4z M609.4,66.9c2.4,0,4.2-0.4,5.3-1.1c1.1-0.8,1.7-2,1.7-3.7c0-3.1-2.3-4.7-7-4.7h-1.1v9.5
		H609.4z"/>
</g>
<g>
</g>
<g>
</g>
<g>
</g>
<g>
</g>
<g>
</g>
<g>
</g>
</svg>
